<mxfile host="app.diagrams.net" modified="2024-01-13T19:31:52.256Z" agent="Mozilla/5.0 (Windows NT 10.0; Win64; x64) AppleWebKit/537.36 (KHTML, like Gecko) Chrome/120.0.0.0 Safari/537.36 OPR/106.0.0.0" etag="jBcwktWbBjNDkK_9XlaL" version="22.1.18" type="device">
  <diagram name="Страница — 1" id="u9fwO8gXTpCb_LneGRMk">
    <mxGraphModel dx="1048" dy="1694" grid="1" gridSize="10" guides="1" tooltips="1" connect="1" arrows="1" fold="1" page="1" pageScale="1" pageWidth="827" pageHeight="1169" math="0" shadow="0">
      <root>
        <mxCell id="0" />
        <mxCell id="1" parent="0" />
        <mxCell id="IhfxPfEklSO_HvEe-v_A-21" value="" style="rounded=0;whiteSpace=wrap;html=1;" vertex="1" parent="1">
          <mxGeometry x="190" y="-20" width="580" height="820" as="geometry" />
        </mxCell>
        <mxCell id="IhfxPfEklSO_HvEe-v_A-1" value="Задание на «разворот» массива. Нужно перевернуть массив и записать его в обратном порядке - Бердюгин А.А." style="text;html=1;strokeColor=none;fillColor=none;align=center;verticalAlign=middle;whiteSpace=wrap;rounded=0;fontSize=18;" vertex="1" parent="1">
          <mxGeometry x="230" y="30" width="500" height="30" as="geometry" />
        </mxCell>
        <mxCell id="IhfxPfEklSO_HvEe-v_A-2" value="Begin" style="ellipse;whiteSpace=wrap;html=1;fontSize=18;" vertex="1" parent="1">
          <mxGeometry x="400" y="90" width="170" height="70" as="geometry" />
        </mxCell>
        <mxCell id="IhfxPfEklSO_HvEe-v_A-3" value="" style="endArrow=classic;html=1;rounded=0;exitX=0.465;exitY=1.043;exitDx=0;exitDy=0;exitPerimeter=0;" edge="1" parent="1" source="IhfxPfEklSO_HvEe-v_A-2" target="IhfxPfEklSO_HvEe-v_A-4">
          <mxGeometry width="50" height="50" relative="1" as="geometry">
            <mxPoint x="490" y="290" as="sourcePoint" />
            <mxPoint x="479" y="240" as="targetPoint" />
          </mxGeometry>
        </mxCell>
        <mxCell id="IhfxPfEklSO_HvEe-v_A-4" value="a[i], n" style="shape=parallelogram;perimeter=parallelogramPerimeter;whiteSpace=wrap;html=1;fixedSize=1;fontSize=18;" vertex="1" parent="1">
          <mxGeometry x="419" y="210" width="120" height="60" as="geometry" />
        </mxCell>
        <mxCell id="IhfxPfEklSO_HvEe-v_A-6" value="b[j] = 0&lt;br style=&quot;font-size: 18px;&quot;&gt;j = 0" style="rounded=0;whiteSpace=wrap;html=1;fontSize=18;" vertex="1" parent="1">
          <mxGeometry x="419" y="320" width="120" height="60" as="geometry" />
        </mxCell>
        <mxCell id="IhfxPfEklSO_HvEe-v_A-7" value="" style="endArrow=classic;html=1;rounded=0;exitX=0.5;exitY=1;exitDx=0;exitDy=0;entryX=0.5;entryY=0;entryDx=0;entryDy=0;" edge="1" parent="1" source="IhfxPfEklSO_HvEe-v_A-4" target="IhfxPfEklSO_HvEe-v_A-6">
          <mxGeometry width="50" height="50" relative="1" as="geometry">
            <mxPoint x="500" y="370" as="sourcePoint" />
            <mxPoint x="550" y="320" as="targetPoint" />
          </mxGeometry>
        </mxCell>
        <mxCell id="IhfxPfEklSO_HvEe-v_A-8" value="&lt;font style=&quot;font-size: 18px;&quot;&gt;for i = 0 .. n, 1&lt;/font&gt;" style="shape=hexagon;perimeter=hexagonPerimeter2;whiteSpace=wrap;html=1;fixedSize=1;" vertex="1" parent="1">
          <mxGeometry x="374.5" y="440" width="201" height="40" as="geometry" />
        </mxCell>
        <mxCell id="IhfxPfEklSO_HvEe-v_A-9" value="" style="endArrow=classic;html=1;rounded=0;exitX=0.5;exitY=1;exitDx=0;exitDy=0;" edge="1" parent="1" source="IhfxPfEklSO_HvEe-v_A-6">
          <mxGeometry width="50" height="50" relative="1" as="geometry">
            <mxPoint x="500" y="370" as="sourcePoint" />
            <mxPoint x="480" y="440" as="targetPoint" />
          </mxGeometry>
        </mxCell>
        <mxCell id="IhfxPfEklSO_HvEe-v_A-10" value="" style="endArrow=classic;html=1;rounded=0;" edge="1" parent="1">
          <mxGeometry width="50" height="50" relative="1" as="geometry">
            <mxPoint x="479" y="480" as="sourcePoint" />
            <mxPoint x="478.5" y="540" as="targetPoint" />
          </mxGeometry>
        </mxCell>
        <mxCell id="IhfxPfEklSO_HvEe-v_A-11" value="b[j] = b[n - i + 1]" style="rounded=0;whiteSpace=wrap;html=1;fontSize=18;" vertex="1" parent="1">
          <mxGeometry x="377.25" y="530" width="205.5" height="40" as="geometry" />
        </mxCell>
        <mxCell id="IhfxPfEklSO_HvEe-v_A-12" value="i = i + 1&lt;br style=&quot;font-size: 18px;&quot;&gt;j = j + 1" style="rounded=0;whiteSpace=wrap;html=1;fontSize=18;" vertex="1" parent="1">
          <mxGeometry x="419" y="640" width="120" height="60" as="geometry" />
        </mxCell>
        <mxCell id="IhfxPfEklSO_HvEe-v_A-13" value="" style="endArrow=classic;html=1;rounded=0;exitX=0.5;exitY=1;exitDx=0;exitDy=0;entryX=0.5;entryY=0;entryDx=0;entryDy=0;" edge="1" parent="1" source="IhfxPfEklSO_HvEe-v_A-11" target="IhfxPfEklSO_HvEe-v_A-12">
          <mxGeometry width="50" height="50" relative="1" as="geometry">
            <mxPoint x="500" y="660" as="sourcePoint" />
            <mxPoint x="550" y="610" as="targetPoint" />
          </mxGeometry>
        </mxCell>
        <mxCell id="IhfxPfEklSO_HvEe-v_A-14" value="" style="endArrow=classic;html=1;rounded=0;exitX=0;exitY=0.5;exitDx=0;exitDy=0;entryX=0;entryY=0.5;entryDx=0;entryDy=0;" edge="1" parent="1" source="IhfxPfEklSO_HvEe-v_A-12" target="IhfxPfEklSO_HvEe-v_A-8">
          <mxGeometry width="50" height="50" relative="1" as="geometry">
            <mxPoint x="250" y="620" as="sourcePoint" />
            <mxPoint x="300" y="460" as="targetPoint" />
            <Array as="points">
              <mxPoint x="300" y="670" />
              <mxPoint x="300" y="460" />
            </Array>
          </mxGeometry>
        </mxCell>
        <mxCell id="IhfxPfEklSO_HvEe-v_A-15" value="" style="endArrow=classic;html=1;rounded=0;exitX=1;exitY=0.5;exitDx=0;exitDy=0;" edge="1" parent="1" source="IhfxPfEklSO_HvEe-v_A-8">
          <mxGeometry width="50" height="50" relative="1" as="geometry">
            <mxPoint x="500" y="660" as="sourcePoint" />
            <mxPoint x="680" y="620" as="targetPoint" />
            <Array as="points">
              <mxPoint x="680" y="460" />
            </Array>
          </mxGeometry>
        </mxCell>
        <mxCell id="IhfxPfEklSO_HvEe-v_A-16" value="b[j]" style="shape=document;whiteSpace=wrap;html=1;boundedLbl=1;fontSize=18;" vertex="1" parent="1">
          <mxGeometry x="650" y="620" width="60" height="60" as="geometry" />
        </mxCell>
        <mxCell id="IhfxPfEklSO_HvEe-v_A-17" value="End" style="ellipse;whiteSpace=wrap;html=1;fontSize=18;" vertex="1" parent="1">
          <mxGeometry x="630" y="710" width="100" height="60" as="geometry" />
        </mxCell>
        <mxCell id="IhfxPfEklSO_HvEe-v_A-18" value="" style="endArrow=classic;html=1;rounded=0;entryX=0.5;entryY=0;entryDx=0;entryDy=0;" edge="1" parent="1" target="IhfxPfEklSO_HvEe-v_A-17">
          <mxGeometry width="50" height="50" relative="1" as="geometry">
            <mxPoint x="680" y="670" as="sourcePoint" />
            <mxPoint x="550" y="610" as="targetPoint" />
          </mxGeometry>
        </mxCell>
      </root>
    </mxGraphModel>
  </diagram>
</mxfile>
